<svg width="286" height="329" viewBox="0 0 286 329" fill="none" xmlns="http://www.w3.org/2000/svg">
<circle cx="143" cy="186" r="139" fill="#EA3712" stroke="white" stroke-width="8"/>
<circle cx="143" cy="186" r="139" fill="#EA3712" stroke="white" stroke-width="8"/>
<path d="M206 96C220.138 99.9387 232.795 116.449 236 129" stroke="white" stroke-width="10" stroke-linecap="round" stroke-linejoin="round"/>
<path d="M72 53.6803C58.5778 58.5108 48.3452 82.3945 29 104.18C64.5539 104.18 57.3076 75.1803 88 75.1803C77.2216 79.702 99.514 113.127 106.5 124.18C103.755 114.006 103.434 66.9745 120.5 68.1803C137.566 69.3861 152.634 50.9677 157 43.1803C144.774 47.1996 117.518 53.188 126.5 36.6084C135.482 20.0288 103 -5.31968 110.5 5.68033C118 16.6803 115.5 36.6084 99.5 43.1803C86.093 33.7644 22 23.4964 45 32.1803C68 40.8643 72 53.6803 72 53.6803Z" fill="#4CC125" stroke="white" stroke-width="6" stroke-linecap="round" stroke-linejoin="round"/>
<rect x="108.668" y="192.665" width="42.059" height="12.9213" rx="5" transform="rotate(31.067 108.668 192.665)" fill="white"/>
<rect x="174.951" y="167.928" width="65.3558" height="12.9213" rx="5" transform="rotate(122.426 174.951 167.928)" fill="white"/>
<path d="M144.3 266.241C146.851 271.316 148.332 276.741 144.332 280.759C140.332 284.777 133.832 284.792 129.814 280.792C125.796 276.792 127.56 271.863 129.781 266.274C135.621 255.93 138.691 255.086 144.3 266.241Z" fill="white"/>
<path d="M129.341 121.777C126.801 116.697 125.332 111.268 129.341 107.259C133.35 103.25 139.85 103.25 143.859 107.259C147.868 111.268 146.093 116.193 143.859 121.777C137.996 132.108 134.925 132.945 129.341 121.777Z" fill="white"/>
<path d="M62.7775 202.059C57.6973 204.599 52.2683 206.068 48.2592 202.059C44.25 198.05 44.2501 191.549 48.2592 187.54C52.2683 183.531 57.1934 185.307 62.7775 187.54C73.1077 193.404 73.9453 196.475 62.7775 202.059Z" fill="white"/>
<path d="M72.944 144.323C67.5434 142.545 62.6547 139.773 62.6547 134.161C62.6547 128.549 67.2614 124 72.944 124C78.6266 124 80.8587 128.69 83.2333 134.161C86.3991 145.495 84.8161 148.231 72.944 144.323Z" fill="white"/>
<path d="M213.877 188.086C218.957 185.546 224.386 184.077 228.396 188.086C232.405 192.095 232.405 198.595 228.395 202.604C224.386 206.613 219.461 204.838 213.877 202.604C203.547 196.741 202.709 193.67 213.877 188.086Z" fill="white"/>
<path d="M188.408 131.289C190.267 125.889 193.165 121 199.032 121C204.899 121 209.655 125.607 209.655 131.289C209.655 136.972 204.752 139.204 199.032 141.579C187.183 144.744 184.323 143.161 188.408 131.289Z" fill="white"/>
<path d="M198.365 248.677C203.766 250.455 208.655 253.227 208.655 258.839C208.655 264.451 204.048 269 198.365 269C192.683 269 190.451 264.31 188.076 258.839C184.91 247.505 186.493 244.769 198.365 248.677Z" fill="white"/>
<path d="M85.9772 258.711C84.1994 264.111 81.4279 269 75.8159 269C70.204 269 65.6547 264.393 65.6547 258.711C65.6547 253.028 70.3445 250.796 75.8159 248.421C87.1497 245.256 89.8854 246.839 85.9772 258.711Z" fill="white"/>
</svg>
